<svg width="14" height="14" viewBox="0 0 14 14" fill="none" xmlns="http://www.w3.org/2000/svg">
<path d="M12.4782 4.0166H9.48641V2.6698C9.48641 2.52128 9.42741 2.37884 9.32239 2.27382C9.21737 2.1688 9.07493 2.1098 8.92641 2.1098H5.07641C4.92789 2.1098 4.78545 2.1688 4.68043 2.27382C4.57541 2.37884 4.51641 2.52128 4.51641 2.6698V4.0166H1.52181C1.30409 4.01734 1.09549 4.10416 0.941528 4.25812C0.787571 4.41208 0.700751 4.62067 0.700013 4.8384V12.474C0.699641 12.6925 0.78597 12.9021 0.940048 13.057C1.09413 13.2119 1.30336 13.2993 1.52181 13.3H12.4782C12.6967 13.2993 12.9059 13.2119 13.06 13.057C13.2141 12.9021 13.3004 12.6925 13.3 12.474V4.8384C13.2993 4.62067 13.2125 4.41208 13.0585 4.25812C12.9045 4.10416 12.6959 4.01734 12.4782 4.0166ZM4.90001 2.6698C4.90038 2.62462 4.91849 2.58139 4.95044 2.54943C4.9824 2.51748 5.02563 2.49937 5.07081 2.499H8.92081C8.966 2.49937 9.00923 2.51748 9.04118 2.54943C9.07313 2.58139 9.09125 2.62462 9.09161 2.6698V4.0166H4.90001V2.6698ZM1.52181 4.41H12.4782C12.5913 4.41037 12.6997 4.45548 12.7797 4.53548C12.8597 4.61547 12.9048 4.72387 12.9052 4.837V7.497H8.37761V7.2072C8.37762 7.15518 8.3673 7.10368 8.34727 7.05568C8.32724 7.00767 8.29788 6.96412 8.26091 6.92753C8.22393 6.89095 8.18007 6.86206 8.13185 6.84253C8.08364 6.82301 8.03203 6.81325 7.98001 6.8138H6.02001C5.91568 6.8138 5.81561 6.85525 5.74184 6.92903C5.66806 7.0028 5.62661 7.10287 5.62661 7.2072V7.5026H1.09341V4.8426C1.09286 4.78599 1.10353 4.72983 1.12481 4.67737C1.14609 4.62491 1.17756 4.57719 1.21739 4.53696C1.25723 4.49673 1.30464 4.4648 1.3569 4.44301C1.40915 4.42122 1.4652 4.41 1.52181 4.41ZM7.98001 7.2072V8.1872H6.02001V7.2072H7.98001ZM12.474 12.901H1.52181C1.40844 12.901 1.29968 12.8561 1.21938 12.776C1.13908 12.696 1.09378 12.5874 1.09341 12.474V7.8974H5.62241V8.1928C5.62241 8.24482 5.63272 8.29632 5.65276 8.34433C5.67279 8.39233 5.70214 8.43589 5.73912 8.47247C5.77609 8.50906 5.81996 8.53795 5.86818 8.55747C5.91639 8.57699 5.968 8.58676 6.02001 8.5862H7.98001C8.08435 8.5862 8.18441 8.54475 8.25819 8.47098C8.33197 8.3972 8.37341 8.29714 8.37341 8.1928V7.8974H12.9066V12.474C12.9066 12.5876 12.8615 12.6966 12.7811 12.7769C12.7008 12.8573 12.5918 12.9024 12.4782 12.9024L12.474 12.901Z" fill="black"/>
</svg>
