<svg width="11" height="14" viewBox="0 0 11 14" fill="none" xmlns="http://www.w3.org/2000/svg">
<path d="M0.194978 9.50562L1.29998 8.2909C1.40831 8.15593 1.47331 8.00168 1.47331 7.82815V5.3216C1.47331 3.75983 2.64331 2.37158 4.33331 1.9474V0.964058C4.33331 0.424186 4.83165 0 5.41664 0C6.00164 0 6.49998 0.443467 6.49998 0.964058V1.92812C8.21164 2.37158 9.38164 3.75983 9.35998 5.3216V7.82815C9.35998 8.00168 9.42498 8.15593 9.53331 8.2909L10.6383 9.50562C10.725 9.60202 10.79 9.73699 10.79 9.87196V11.3952H-2.19345e-05V9.87196C0.0433111 9.73699 0.108311 9.60202 0.194978 9.50562ZM5.87164 0.964058C5.87164 0.751966 5.67664 0.578435 5.43831 0.578435C5.19998 0.578435 5.00498 0.751966 5.00498 0.964058V1.83171C5.30831 1.79315 5.58998 1.79315 5.89331 1.83171V0.964058H5.87164ZM0.693311 10.7975H10.1833V9.87196L9.07831 8.65724C8.86164 8.42587 8.75331 8.13665 8.75331 7.82815V5.3216C8.75331 3.70198 7.27998 2.37158 5.43831 2.37158C3.59664 2.37158 2.12331 3.6827 2.12331 5.3216V7.82815C2.12331 8.13665 2.01498 8.42587 1.79831 8.65724L0.693311 9.87196V10.7975Z" fill="#fff"/>
<path d="M5.87164 3.0271V3.60553C4.54998 3.60553 3.46664 4.56959 3.46664 5.74574H2.81664C2.81664 4.24181 4.18164 3.0271 5.87164 3.0271Z" fill="#fff"/>
<path d="M5.4383 12.4942C6.06663 12.4942 6.56497 12.0507 6.56497 11.4916H7.21497C7.21497 12.3592 6.4133 13.0726 5.4383 13.0726C4.4633 13.0726 3.66163 12.3592 3.66163 11.4916H4.31163C4.31163 12.0507 4.80997 12.4942 5.4383 12.4942Z" fill="#fff"/>
</svg>
