<svg width="7" height="5" viewBox="0 0 7 5" fill="none" xmlns="http://www.w3.org/2000/svg">
<path d="M5.92735 0.302162L2.12079 4.04576L1.07977 2.9499C1.02364 2.89354 0.947688 2.86136 0.86815 2.86025C0.788612 2.85914 0.711793 2.88918 0.654105 2.94395C0.596418 2.99872 0.562437 3.07388 0.559423 3.15336C0.556409 3.23285 0.584601 3.31037 0.637975 3.36935L1.89227 4.68966C1.92012 4.71888 1.95349 4.74228 1.99045 4.75849C2.02741 4.77471 2.06723 4.78342 2.10758 4.78412H2.11266C2.19245 4.78405 2.26903 4.75269 2.32594 4.69677L6.3529 0.735834C6.38144 0.707759 6.40417 0.674337 6.4198 0.637476C6.43542 0.600616 6.44363 0.561038 6.44396 0.521004C6.4443 0.480969 6.43674 0.441262 6.42172 0.404149C6.40671 0.367036 6.38453 0.333243 6.35645 0.304701C6.32838 0.276159 6.29495 0.253427 6.25809 0.237801C6.22123 0.222176 6.18166 0.213963 6.14162 0.213633C6.10159 0.213303 6.06188 0.220862 6.02477 0.235877C5.98765 0.250893 5.95386 0.273071 5.92532 0.301147L5.92735 0.302162Z" fill="#00C2FF"/>
</svg>
