<svg width="13" height="13" viewBox="0 0 13 13" fill="none" xmlns="http://www.w3.org/2000/svg">
<g clip-path="url(#clip0_6631_7530)">
<path d="M6.5 0C5.21442 0 3.95772 0.381218 2.8888 1.09545C1.81988 1.80968 0.986756 2.82484 0.494786 4.01256C0.00281633 5.20028 -0.125905 6.50721 0.124899 7.76809C0.375703 9.02896 0.994768 10.1872 1.90381 11.0962C2.81285 12.0052 3.97104 12.6243 5.23192 12.8751C6.49279 13.1259 7.79973 12.9972 8.98744 12.5052C10.1752 12.0132 11.1903 11.1801 11.9046 10.1112C12.6188 9.04229 13 7.78558 13 6.5C12.9981 4.77667 12.3127 3.12446 11.0941 1.90588C9.87554 0.687306 8.22333 0.00188181 6.5 0ZM6.5 12.3906C5.33495 12.3906 4.19606 12.0451 3.22735 11.3979C2.25864 10.7506 1.50362 9.83062 1.05778 8.75424C0.611928 7.67787 0.495274 6.49347 0.722565 5.3508C0.949856 4.20813 1.51088 3.15852 2.3347 2.3347C3.15852 1.51088 4.20813 0.949853 5.3508 0.722562C6.49347 0.495271 7.67788 0.611925 8.75425 1.05777C9.83062 1.50362 10.7506 2.25864 11.3979 3.22734C12.0451 4.19605 12.3906 5.33494 12.3906 6.5C12.3887 8.06171 11.7675 9.55892 10.6632 10.6632C9.55893 11.7675 8.06172 12.3887 6.5 12.3906Z" fill="#00FF75"/>
<path d="M8.92735 4.30216L5.12079 8.04576L4.07977 6.9499C4.02364 6.89354 3.94769 6.86136 3.86815 6.86025C3.78861 6.85914 3.71179 6.88918 3.65411 6.94395C3.59642 6.99872 3.56244 7.07388 3.55942 7.15336C3.55641 7.23285 3.5846 7.31037 3.63797 7.36935L4.89227 8.68966C4.92012 8.71888 4.95349 8.74228 4.99045 8.75849C5.02741 8.77471 5.06723 8.78342 5.10758 8.78412H5.11266C5.19245 8.78405 5.26903 8.75269 5.32594 8.69677L9.3529 4.73583C9.38144 4.70776 9.40417 4.67434 9.4198 4.63748C9.43542 4.60062 9.44363 4.56104 9.44396 4.521C9.44429 4.48097 9.43674 4.44126 9.42172 4.40415C9.40671 4.36704 9.38453 4.33324 9.35645 4.3047C9.32838 4.27616 9.29495 4.25343 9.25809 4.2378C9.22123 4.22218 9.18166 4.21396 9.14162 4.21363C9.10159 4.2133 9.06188 4.22086 9.02477 4.23588C8.98765 4.25089 8.95386 4.27307 8.92532 4.30115L8.92735 4.30216Z" fill="#00FF75"/>
</g>
<defs>
<clipPath id="clip0_6631_7530">
<rect width="13" height="13" fill="white"/>
</clipPath>
</defs>
</svg>
