<svg width="13" height="12" viewBox="0 0 13 12" fill="none" xmlns="http://www.w3.org/2000/svg">
<path d="M1.86572 1.01293H2.40635V0.317991C2.40635 0.142489 2.54884 0 2.72434 0H3.8056C3.9811 0 4.12344 0.142489 4.12344 0.317991V1.01293H8.60724V0.317991C8.60724 0.142489 8.74958 0 8.92523 0H10.0063C10.1818 0 10.3243 0.142489 10.3243 0.317991V1.01293H10.865C11.8917 1.01293 12.7307 1.8519 12.7307 2.87881C12.7307 5.27855 12.7307 7.6783 12.7307 10.078C12.7307 11.105 11.8917 11.9439 10.865 11.9439H1.86572C0.838967 11.9439 0 11.105 0 10.078C0 7.6783 0 5.27855 0 2.87881C0 1.8519 0.838967 1.01293 1.86572 1.01293ZM1.61943 7.88605H2.92318V9.18979H1.61943V7.88605ZM9.8075 7.88605H11.1114V9.18979H9.8075V7.88605ZM7.07809 7.88605H8.38184V9.18979H7.07809V7.88605ZM4.34884 7.88605H5.65259V9.18979H4.34884V7.88605ZM1.61943 5.88275H2.92318V7.1865H1.61943V5.88275ZM9.8075 5.88275H11.1114V7.1865H9.8075V5.88275ZM7.07809 5.88275H8.38184V7.1865H7.07809V5.88275ZM4.34884 5.88275H5.65259V7.1865H4.34884V5.88275ZM3.04233 1.33092V2.03523H3.48761V1.33092V0.635981H3.04233V1.33092ZM9.24323 2.03523H9.68835V0.635981H9.24323V2.03523ZM0.635981 4.45187H12.0947V3.91661H0.635981V4.45187ZM12.0947 5.08785H0.635981V10.078C0.635981 10.7538 1.18997 11.3079 1.86572 11.3079H10.865C11.5407 11.3079 12.0947 10.7538 12.0947 10.078V5.08785ZM0.635981 3.28063H12.0947V2.87881C12.0947 2.20306 11.5407 1.64891 10.865 1.64891H10.3243V2.35322C10.3243 2.52872 10.1818 2.67121 10.0063 2.67121H8.92523C8.74958 2.67121 8.60724 2.52872 8.60724 2.35322V1.64891H4.12344V2.35322C4.12344 2.52872 3.9811 2.67121 3.8056 2.67121H2.72434C2.54884 2.67121 2.40635 2.52872 2.40635 2.35322V1.64891H1.86572C1.18997 1.64891 0.635981 2.20306 0.635981 2.87881V3.28063Z" fill="#C5C5C5"/>
</svg>
