<svg width="22" height="22" viewBox="0 0 22 22" fill="none" xmlns="http://www.w3.org/2000/svg">
<rect width="22" height="22" rx="11" fill="#373433"/>
<path d="M11.1 14.3C11.3 14.55 11.7 14.55 11.9 14.3L14.9 11.15C15.15 10.9 14.9 10.5 14.5 10.5H12.5C12.5 10.5 12.6 8.2 12.5 7C12.45 6.45 12.05 6 11.5 6C10.95 6 10.55 6.45 10.5 7C10.4 8.15 10.5 10.5 10.5 10.5H8.49997C8.09997 10.5 7.84997 10.9 8.09997 11.2L11.1 14.3Z" fill="white"/>
<path d="M15 15.5H8C7.45 15.5 7 15.95 7 16.5C7 16.8 7.2 17 7.5 17H15.5C15.8 17 16 16.8 16 16.5C16 15.95 15.55 15.5 15 15.5Z" fill="white"/>
</svg>
