<svg width="9" height="9" viewBox="0 0 9 9" fill="none" xmlns="http://www.w3.org/2000/svg">
<path d="M8.625 2.09375H2.78125C2.69008 2.09375 2.60265 2.05753 2.53818 1.99307C2.47372 1.9286 2.4375 1.84117 2.4375 1.75C2.4375 1.65883 2.47372 1.5714 2.53818 1.50693C2.60265 1.44247 2.69008 1.40625 2.78125 1.40625H8.625C8.71617 1.40625 8.8036 1.44247 8.86807 1.50693C8.93253 1.5714 8.96875 1.65883 8.96875 1.75C8.96875 1.84117 8.93253 1.9286 8.86807 1.99307C8.8036 2.05753 8.71617 2.09375 8.625 2.09375Z" fill="black"/>
<path d="M1.40625 2.09375H0.375C0.283832 2.09375 0.196398 2.05753 0.131932 1.99307C0.0674664 1.9286 0.03125 1.84117 0.03125 1.75C0.03125 1.65883 0.0674664 1.5714 0.131932 1.50693C0.196398 1.44247 0.283832 1.40625 0.375 1.40625H1.40625C1.49742 1.40625 1.58485 1.44247 1.64932 1.50693C1.71378 1.5714 1.75 1.65883 1.75 1.75C1.75 1.84117 1.71378 1.9286 1.64932 1.99307C1.58485 2.05753 1.49742 2.09375 1.40625 2.09375Z" fill="black"/>
<path d="M6.21875 4.84375H0.375C0.283832 4.84375 0.196398 4.80753 0.131932 4.74307C0.0674664 4.6786 0.03125 4.59117 0.03125 4.5C0.03125 4.40883 0.0674664 4.3214 0.131932 4.25693C0.196398 4.19247 0.283832 4.15625 0.375 4.15625H6.21875C6.30992 4.15625 6.39735 4.19247 6.46182 4.25693C6.52628 4.3214 6.5625 4.40883 6.5625 4.5C6.5625 4.59117 6.52628 4.6786 6.46182 4.74307C6.39735 4.80753 6.30992 4.84375 6.21875 4.84375Z" fill="black"/>
<path d="M2.78125 7.59375H0.375C0.283832 7.59375 0.196398 7.55753 0.131932 7.49307C0.0674664 7.4286 0.03125 7.34117 0.03125 7.25C0.03125 7.15883 0.0674664 7.0714 0.131932 7.00693C0.196398 6.94247 0.283832 6.90625 0.375 6.90625H2.78125C2.87242 6.90625 2.95985 6.94247 3.02432 7.00693C3.08878 7.0714 3.125 7.15883 3.125 7.25C3.125 7.34117 3.08878 7.4286 3.02432 7.49307C2.95985 7.55753 2.87242 7.59375 2.78125 7.59375Z" fill="black"/>
<path d="M2.09375 2.78125C1.88979 2.78125 1.69041 2.72077 1.52082 2.60745C1.35123 2.49414 1.21905 2.33308 1.141 2.14464C1.06295 1.95621 1.04252 1.74886 1.08232 1.54881C1.12211 1.34877 1.22032 1.16502 1.36455 1.0208C1.50877 0.876574 1.69252 0.778357 1.89256 0.738566C2.09261 0.698775 2.29996 0.719197 2.48839 0.79725C2.67683 0.875303 2.83789 1.00748 2.9512 1.17707C3.06452 1.34666 3.125 1.54604 3.125 1.75C3.125 2.0235 3.01635 2.28581 2.82295 2.4792C2.62956 2.6726 2.36725 2.78125 2.09375 2.78125ZM2.09375 1.40625C2.02576 1.40625 1.9593 1.42641 1.90277 1.46418C1.84624 1.50195 1.80218 1.55564 1.77617 1.61845C1.75015 1.68127 1.74334 1.75038 1.75661 1.81706C1.76987 1.88374 1.80261 1.94499 1.85068 1.99307C1.89876 2.04114 1.96001 2.07388 2.02669 2.08715C2.09337 2.10041 2.16249 2.0936 2.2253 2.06758C2.28811 2.04157 2.3418 1.99751 2.37957 1.94098C2.41734 1.88445 2.4375 1.81799 2.4375 1.75C2.4375 1.65883 2.40128 1.5714 2.33682 1.50693C2.27235 1.44247 2.18492 1.40625 2.09375 1.40625Z" fill="black"/>
<path d="M6.90625 5.53125C6.70229 5.53125 6.50291 5.47077 6.33332 5.35745C6.16373 5.24414 6.03155 5.08308 5.9535 4.89464C5.87545 4.70621 5.85502 4.49886 5.89482 4.29881C5.93461 4.09877 6.03282 3.91502 6.17705 3.7708C6.32127 3.62657 6.50502 3.52836 6.70506 3.48857C6.90511 3.44877 7.11246 3.4692 7.30089 3.54725C7.48933 3.6253 7.65039 3.75748 7.7637 3.92707C7.87702 4.09666 7.9375 4.29604 7.9375 4.5C7.9375 4.77351 7.82885 5.03581 7.63545 5.2292C7.44206 5.4226 7.17976 5.53125 6.90625 5.53125ZM6.90625 4.15625C6.83826 4.15625 6.7718 4.17641 6.71527 4.21418C6.65874 4.25195 6.61468 4.30564 6.58867 4.36845C6.56265 4.43127 6.55584 4.50038 6.56911 4.56706C6.58237 4.63374 6.61511 4.69499 6.66318 4.74307C6.71126 4.79114 6.77251 4.82388 6.83919 4.83715C6.90587 4.85041 6.97499 4.8436 7.0378 4.81758C7.10061 4.79157 7.1543 4.74751 7.19207 4.69098C7.22984 4.63445 7.25 4.56799 7.25 4.5C7.25 4.40883 7.21378 4.3214 7.14932 4.25693C7.08485 4.19247 6.99742 4.15625 6.90625 4.15625Z" fill="black"/>
<path d="M3.46875 8.28125C3.26479 8.28125 3.06541 8.22077 2.89582 8.10745C2.72623 7.99414 2.59405 7.83308 2.516 7.64464C2.43795 7.45621 2.41752 7.24886 2.45732 7.04881C2.49711 6.84877 2.59532 6.66502 2.73955 6.5208C2.88377 6.37657 3.06752 6.27836 3.26756 6.23857C3.46761 6.19877 3.67496 6.2192 3.86339 6.29725C4.05183 6.3753 4.21289 6.50748 4.3262 6.67707C4.43952 6.84666 4.5 7.04604 4.5 7.25C4.5 7.52351 4.39135 7.78581 4.19795 7.9792C4.00456 8.1726 3.74226 8.28125 3.46875 8.28125ZM3.46875 6.90625C3.40076 6.90625 3.3343 6.92641 3.27777 6.96418C3.22124 7.00195 3.17718 7.05564 3.15117 7.11845C3.12515 7.18127 3.11834 7.25038 3.13161 7.31706C3.14487 7.38374 3.17761 7.44499 3.22568 7.49307C3.27376 7.54114 3.33501 7.57388 3.40169 7.58715C3.46837 7.60041 3.53749 7.5936 3.6003 7.56758C3.66311 7.54157 3.7168 7.49751 3.75457 7.44098C3.79234 7.38445 3.8125 7.31799 3.8125 7.25C3.8125 7.15883 3.77628 7.0714 3.71182 7.00693C3.64735 6.94247 3.55992 6.90625 3.46875 6.90625Z" fill="black"/>
<path d="M8.625 4.84375H7.59375C7.50258 4.84375 7.41515 4.80753 7.35068 4.74307C7.28622 4.6786 7.25 4.59117 7.25 4.5C7.25 4.40883 7.28622 4.3214 7.35068 4.25693C7.41515 4.19247 7.50258 4.15625 7.59375 4.15625H8.625C8.71617 4.15625 8.8036 4.19247 8.86807 4.25693C8.93253 4.3214 8.96875 4.40883 8.96875 4.5C8.96875 4.59117 8.93253 4.6786 8.86807 4.74307C8.8036 4.80753 8.71617 4.84375 8.625 4.84375Z" fill="black"/>
<path d="M8.625 7.59375H4.15625C4.06508 7.59375 3.97765 7.55753 3.91318 7.49307C3.84872 7.4286 3.8125 7.34117 3.8125 7.25C3.8125 7.15883 3.84872 7.0714 3.91318 7.00693C3.97765 6.94247 4.06508 6.90625 4.15625 6.90625H8.625C8.71617 6.90625 8.8036 6.94247 8.86807 7.00693C8.93253 7.0714 8.96875 7.15883 8.96875 7.25C8.96875 7.34117 8.93253 7.4286 8.86807 7.49307C8.8036 7.55753 8.71617 7.59375 8.625 7.59375Z" fill="black"/>
</svg>
