<svg width="28" height="28" viewBox="0 0 19 17" fill="none" xmlns="http://www.w3.org/2000/svg">
<path d="M14.7336 15.2695H11.1705C11.0067 15.2695 10.8737 15.1505 10.8737 15.0038V10.6901H8.17372V15.0037C8.17372 15.1503 8.04072 15.2693 7.87685 15.2693H4.3139C4.15003 15.2693 4.01703 15.1503 4.01703 15.0037V8.24606C4.01703 8.17673 4.04731 8.11019 4.10134 8.06065L9.3256 3.26851C9.38141 3.21725 9.45815 3.18829 9.53816 3.18829H9.53861C9.61876 3.18829 9.69551 3.21751 9.75132 3.26891L14.9468 8.06092C15.0005 8.11046 15.0305 8.17686 15.0305 8.24593V15.0037C15.0305 15.1504 14.8975 15.2695 14.7336 15.2695ZM11.4674 14.7382H14.4367V8.35364L9.53757 3.83496L4.61078 8.35417V14.7381H7.58012V10.4244C7.58012 10.2778 7.71312 10.1588 7.877 10.1588H11.1705C11.3344 10.1588 11.4674 10.2778 11.4674 10.4244V14.7382Z" fill="black"/>
<path d="M2.67768 8.4818C2.60346 8.4818 2.52924 8.4571 2.47165 8.40742C2.35364 8.30569 2.35008 8.13742 2.46378 8.03183L9.29873 1.68419C9.3544 1.63239 9.43129 1.60317 9.51144 1.60291C9.59917 1.60251 9.66864 1.63146 9.7249 1.68286L16.5441 7.92385C16.6587 8.02878 16.6566 8.19692 16.5395 8.29945C16.4221 8.40198 16.2342 8.39999 16.1197 8.2952L9.51426 2.24997L2.89143 8.40039C2.83324 8.45457 2.75546 8.4818 2.67768 8.4818Z" fill="black"/>
<path d="M5.40314 5.95066C5.23926 5.95066 5.10626 5.83166 5.10626 5.68504V2.65625C5.10626 2.50963 5.23926 2.39062 5.40314 2.39062C5.56701 2.39062 5.70001 2.50963 5.70001 2.65625V5.68504C5.70001 5.83166 5.56716 5.95066 5.40314 5.95066Z" fill="black"/>
</svg>
