<svg width="21" height="21" viewBox="0 0 21 21" fill="none" xmlns="http://www.w3.org/2000/svg">
<g clip-path="url(#clip0_6712_12216)">
<path d="M13.0593 11.3498C15.3409 11.3498 17.1904 9.50028 17.1904 7.21874C17.1904 4.9372 15.3409 3.08765 13.0593 3.08765C10.7778 3.08765 8.92822 4.9372 8.92822 7.21874C8.92822 9.50028 10.7778 11.3498 13.0593 11.3498Z" fill="#EFCC00"/>
<path d="M13.0593 0.65625V2.11313" stroke="#EFCC00" stroke-width="3" stroke-miterlimit="10" stroke-linecap="round"/>
<path d="M13.0593 12.3243V13.7812" stroke="#EFCC00" stroke-width="3" stroke-miterlimit="10" stroke-linecap="round"/>
<path d="M6.49683 7.21875H7.95698" stroke="#EFCC00" stroke-width="3" stroke-miterlimit="10" stroke-linecap="round"/>
<path d="M18.165 7.21875H19.6219" stroke="#EFCC00" stroke-width="3" stroke-miterlimit="10" stroke-linecap="round"/>
<path d="M8.41968 2.5791L9.44999 3.60941" stroke="#EFCC00" stroke-width="3" stroke-miterlimit="10" stroke-linecap="round"/>
<path d="M16.6687 10.8281L17.699 11.8584" stroke="#EFCC00" stroke-width="3" stroke-miterlimit="10" stroke-linecap="round"/>
<path d="M8.41968 11.8584L9.44999 10.8281" stroke="#EFCC00" stroke-width="3" stroke-miterlimit="10" stroke-linecap="round"/>
<path d="M16.6687 3.60941L17.699 2.5791" stroke="#EFCC00" stroke-width="3" stroke-miterlimit="10" stroke-linecap="round"/>
<path d="M7.71094 5.21717C8.75688 5.21505 9.78351 5.49882 10.6799 6.0378C11.5763 6.57678 12.3083 7.35049 12.7969 8.2753C13.3954 7.92533 14.0666 7.71803 14.7583 7.6695C15.4499 7.62096 16.1435 7.73249 16.7851 7.99543C17.4266 8.25837 17.999 8.66564 18.4576 9.18563C18.9163 9.70561 19.2489 10.3243 19.4297 10.9937C19.6105 11.6631 19.6346 12.3651 19.5001 13.0453C19.3656 13.7255 19.0762 14.3655 18.6542 14.9157C18.2323 15.4659 17.6892 15.9115 17.0672 16.2178C16.4451 16.5241 15.7609 16.6829 15.0675 16.6819L7.71094 16.7016C6.18801 16.7016 4.72747 16.0966 3.6506 15.0197C2.57373 13.9428 1.96875 12.4823 1.96875 10.9594C1.96875 9.43644 2.57373 7.97589 3.6506 6.89902C4.72747 5.82215 6.18801 5.21717 7.71094 5.21717Z" fill="url(#paint0_linear_6712_12216)"/>
<path d="M19.4031 13.382C20.0736 10.9821 18.6717 8.49313 16.2718 7.82263C13.872 7.15213 11.383 8.55404 10.7125 10.9539C10.042 13.3537 11.4439 15.8427 13.8437 16.5132C16.2436 17.1837 18.7326 15.7818 19.4031 13.382Z" fill="url(#paint1_linear_6712_12216)"/>
<path d="M12.4163 17.8828H15.7697" stroke="#A5A9AA" stroke-width="3" stroke-miterlimit="10" stroke-linecap="round"/>
<path d="M5.23035 17.8828H10.7428" stroke="#B9C1C6" stroke-width="3" stroke-miterlimit="10" stroke-linecap="round"/>
<path d="M10.9036 19.5234H14.6179" stroke="#A5A9AA" stroke-width="3" stroke-miterlimit="10" stroke-linecap="round"/>
<path d="M6.54932 19.5234H9.0726" stroke="#A5A9AA" stroke-width="3" stroke-miterlimit="10" stroke-linecap="round"/>
</g>
<defs>
<linearGradient id="paint0_linear_6712_12216" x1="6.26062" y1="17.1905" x2="13.1808" y2="8.22936" gradientUnits="userSpaceOnUse">
<stop stop-color="#F2F2F2"/>
<stop offset="1" stop-color="#CFCFCF"/>
</linearGradient>
<linearGradient id="paint1_linear_6712_12216" x1="16.9027" y1="10.5643" x2="11.673" y2="15.1129" gradientUnits="userSpaceOnUse">
<stop offset="0.02" stop-color="white"/>
<stop offset="1" stop-color="white" stop-opacity="0"/>
</linearGradient>
<clipPath id="clip0_6712_12216">
<rect width="21" height="21" fill="white"/>
</clipPath>
</defs>
</svg>
