<svg width="15" height="15" viewBox="0 0 15 15" fill="none" xmlns="http://www.w3.org/2000/svg">
<path d="M8.70376 10.462L10.9448 6.85852C10.9521 6.84686 10.9583 6.8346 10.963 6.8219C11.35 6.19082 11.5544 5.46991 11.5544 4.7339C11.5544 2.52587 9.75799 0.729492 7.54999 0.729492C5.34198 0.729492 3.54547 2.52587 3.54547 4.7339C3.54547 5.47006 3.7501 6.19127 4.13738 6.82279C4.14187 6.83386 4.1471 6.84462 4.15338 6.85508L6.314 10.471C4.63677 10.7081 3.53381 11.3977 3.53381 12.2343C3.53381 13.2709 5.29535 14.0827 7.54401 14.0827C9.79267 14.0827 11.5542 13.2708 11.5542 12.2343C11.5544 11.3939 10.4 10.6888 8.70376 10.462ZM4.53991 6.62085C4.18267 6.05226 3.99389 5.3998 3.99389 4.7339C3.99389 2.7731 5.58906 1.17791 7.54999 1.17791C9.51077 1.17791 11.1059 2.7731 11.1059 4.7339C11.1059 5.4001 10.9172 6.05256 10.5601 6.62085C10.5526 6.63281 10.5465 6.64522 10.5415 6.65807L8.17388 10.4647C8.13831 10.5193 8.13128 10.5317 8.08779 10.6031L7.4899 11.5646L4.55994 6.66121C4.55471 6.64731 4.54798 6.63371 4.53991 6.62085ZM7.54416 13.6343C5.44512 13.6343 3.98238 12.8964 3.98238 12.2343C3.98238 11.6335 5.08399 11.0673 6.56571 10.8919L7.29364 12.1103C7.33385 12.1774 7.4059 12.2188 7.48407 12.2194C7.48467 12.2194 7.48541 12.2194 7.48601 12.2194C7.56344 12.2194 7.63548 12.1793 7.67644 12.1136L8.44174 10.8831C9.94707 11.0462 11.1058 11.6267 11.1058 12.2343C11.1059 12.8965 9.6432 13.6343 7.54416 13.6343Z" fill="black"/>
<path d="M9.00016 4.73386C9.00016 3.93103 8.34696 3.27783 7.54415 3.27783C6.74133 3.27783 6.08813 3.93103 6.08813 4.73386C6.08813 5.53668 6.74133 6.18988 7.54415 6.18988C8.34696 6.18988 9.00016 5.53668 9.00016 4.73386ZM6.53655 4.73386C6.53655 4.17826 6.98856 3.72625 7.54415 3.72625C8.09973 3.72625 8.55174 4.17826 8.55174 4.73386C8.55174 5.28945 8.09988 5.74146 7.54415 5.74146C6.98841 5.74146 6.53655 5.28945 6.53655 4.73386Z" fill="black"/>
</svg>
