<?xml version="1.0" encoding="utf-8"?>
<!-- Generator: Adobe Illustrator 26.0.2, SVG Export Plug-In . SVG Version: 6.00 Build 0)  -->
<svg version="1.1" id="Layer_1" xmlns="http://www.w3.org/2000/svg" xmlns:xlink="http://www.w3.org/1999/xlink" x="0px" y="0px"
	 viewBox="0 0 24 24" style="enable-background:new 0 0 24 24;" xml:space="preserve">
<g>
	<path d="M10.7,17.6c-0.1-0.5-0.3-1.1-0.4-1.7c0.1,0,0.2,0,0.3,0c0.1-0.7,0.3-1.4,0.5-2c-0.4,0-0.7,0-1.1-0.1c0-0.6-0.1-1.2-0.1-1.9
		s0-1.3,0.1-1.9c0.6,0,1.2-0.1,1.9-0.1s1.3,0,1.9,0.1c0,0.4,0,0.7,0.1,1.1c0.6-0.3,1.3-0.5,2-0.5c0-0.1,0-0.2,0-0.3
		c0.6,0.1,1.2,0.2,1.7,0.4c1.8,0.4,3.4,1.6,4.2,3.2c0.1-0.6,0.2-1.3,0.2-1.9c0-5.5-4.5-10-10-10S2,6.5,2,12s4.5,10,10,10
		c0.7,0,1.3-0.1,1.9-0.2C12.3,21,11.1,19.5,10.7,17.6z M19.5,9.2c-1.1-0.5-2.4-0.8-3.8-1c-0.2-1.4-0.5-2.7-1-3.8
		C17,5.3,18.7,7,19.5,9.2z M12,4c0.4,0,1.2,1.4,1.7,4.1C13.1,8,12.6,8,12,8s-1.1,0-1.7,0.1C10.8,5.4,11.6,4,12,4z M4,12
		c0-0.4,1.4-1.2,4.1-1.7C8,10.9,8,11.4,8,12s0,1.1,0.1,1.7C5.4,13.2,4,12.4,4,12z M4.5,14.8c1.1,0.5,2.4,0.8,3.8,1
		c0.2,1.4,0.5,2.7,1,3.8C7,18.7,5.3,17,4.5,14.8z M8.3,8.3c-1.4,0.2-2.7,0.5-3.8,1C5.3,7,7,5.3,9.2,4.5C8.8,5.6,8.5,6.9,8.3,8.3z"/>
	<path d="M20.3,18.9c0.4-0.7,0.7-1.5,0.7-2.4c0-2.5-2-4.5-4.5-4.5S12,14,12,16.5s2,4.5,4.5,4.5c0.9,0,1.7-0.3,2.4-0.7l1.4,1.4
		c0.2,0.2,0.5,0.3,0.7,0.3s0.5-0.1,0.7-0.3c0.4-0.4,0.4-1,0-1.4L20.3,18.9z M16.5,19c-1.4,0-2.5-1.1-2.5-2.5s1.1-2.5,2.5-2.5
		s2.5,1.1,2.5,2.5S17.9,19,16.5,19z"/>
</g>
</svg>
