<svg width="13" height="12" viewBox="0 0 13 12" fill="none" xmlns="http://www.w3.org/2000/svg">
	<path d="M1.25 11H6V2H1V10.75C1 10.8177 1.02474 10.8763 1.07422 10.9258C1.1237 10.9753 1.18229 11 1.25 11ZM12 10.75V2H7V11H11.75C11.8177 11 11.8763 10.9753 11.9258 10.9258C11.9753 10.8763 12 10.8177 12 10.75ZM13 1.25V10.75C13 11.0938 12.8776 11.388 12.6328 11.6328C12.388 11.8776 12.0938 12 11.75 12H1.25C0.90625 12 0.611979 11.8776 0.367188 11.6328C0.122396 11.388 0 11.0938 0 10.75V1.25C0 0.90625 0.122396 0.611979 0.367188 0.367188C0.611979 0.122396 0.90625 0 1.25 0H11.75C12.0938 0 12.388 0.122396 12.6328 0.367188C12.8776 0.611979 13 0.90625 13 1.25Z" fill="#000000" />
</svg>
