<svg width="14" height="14" viewBox="0 0 14 14" fill="none" xmlns="http://www.w3.org/2000/svg">
<path d="M13.281 7.61415C12.6187 7.61569 10.5132 7.84907 10.126 7.91307C9.88151 7.95323 9.59459 7.95415 9.39797 8.11846C9.21751 8.26923 9.29812 8.54738 9.46766 8.66C9.64951 8.78 12.1107 8.75861 12.4963 8.75923C12.463 8.82138 11.7634 10.0211 11.3846 10.5166C10.6163 11.5212 9.48889 12.3514 8.27489 12.7305C6.75089 13.2063 4.97182 12.8815 3.65105 12.0049C2.99689 11.5711 2.48259 10.9568 2.05659 10.3054C1.69197 9.74769 1.35966 8.93338 0.81997 8.53215C0.783355 8.50446 0.714278 8.53184 0.707355 8.578C0.623047 9.14154 0.924893 9.76369 1.14474 10.2691C1.40628 10.8697 1.78259 11.4289 2.21135 11.9237C3.11766 12.9697 4.51443 13.5788 5.86335 13.7786C8.2192 14.1282 10.5344 13.0543 12.0112 11.2182C12.3469 10.8005 12.6355 10.3486 12.9158 9.89231C12.9097 10.6046 12.9035 11.3172 12.899 12.0294C12.895 12.6454 13.8521 12.646 13.8563 12.0294C13.8646 10.752 13.875 9.47492 13.875 8.19754C13.8749 7.85554 13.4724 7.61384 13.281 7.61415Z" fill="#FEDA00"/>
<path d="M2.70352 3.18277C3.48752 2.27 4.56613 1.45831 5.75244 1.16585C7.37136 0.767232 9.4026 1.35292 10.5906 2.51785C11.1326 3.04862 11.5486 3.67754 11.9343 4.32569C12.2549 4.86354 12.5626 5.63415 13.0672 6.01939C13.1047 6.04815 13.1715 6.01877 13.1797 5.97385C13.2777 5.42431 12.9892 4.81031 12.7934 4.30923C12.5601 3.71092 12.2221 3.13431 11.8452 2.61492C11.0398 1.50554 9.86567 0.786616 8.55844 0.40077C6.0906 -0.326922 3.69367 0.62277 2.04398 2.52308C1.68583 2.936 1.37321 3.38708 1.06783 3.84108C1.10721 3.28939 1.14736 2.73769 1.18552 2.18585C1.22829 1.57123 0.271057 1.574 0.228442 2.18585C0.15275 3.27262 -0.0052504 5.55446 0.000134215 5.60569C0.00213421 5.69985 -0.000173495 6.11354 0.429826 6.11354C0.927211 6.11385 2.09983 6.06892 2.58798 6.04185C3.03121 6.01723 3.48106 6.01431 3.9226 5.96877C4.10075 5.95015 4.49598 5.95662 4.51275 5.74554C4.53967 5.40754 3.91383 5.28246 3.74536 5.26585C3.27444 5.21908 1.7149 5.06877 1.40567 5.04323C1.44998 4.96815 1.49352 4.89492 1.5369 4.82954C1.90629 4.26969 2.26583 3.69246 2.70352 3.18277Z" fill="#FEDA00"/>
</svg>
