<svg width="15" height="14" viewBox="0 0 15 14" fill="none" xmlns="http://www.w3.org/2000/svg">
<path d="M13.125 0H1.875C0.84125 0 0 0.84125 0 1.875V8.75C0 9.78375 0.84125 10.625 1.875 10.625H5.625V11.875H3.75C3.405 11.875 3.125 12.155 3.125 12.5C3.125 12.845 3.405 13.125 3.75 13.125H11.25C11.595 13.125 11.875 12.845 11.875 12.5C11.875 12.155 11.595 11.875 11.25 11.875H9.375V10.625H13.125C14.1587 10.625 15 9.78375 15 8.75V1.875C15 0.84125 14.1587 0 13.125 0ZM8.75 11.875H6.25V10.625H8.75V11.875ZM13.75 8.75C13.75 9.09437 13.4694 9.375 13.125 9.375H1.875C1.53062 9.375 1.25 9.09437 1.25 8.75V1.875C1.25 1.53062 1.53062 1.25 1.875 1.25H13.125C13.4694 1.25 13.75 1.53062 13.75 1.875V8.75Z" fill="black"/>
<path d="M12.5 1.875H2.5C2.15625 1.875 1.875 2.15625 1.875 2.5V7.5C1.875 7.84375 2.15625 8.125 2.5 8.125H12.5C12.8438 8.125 13.125 7.84375 13.125 7.5V2.5C13.125 2.15625 12.8438 1.875 12.5 1.875ZM12.5 7.5H2.5V2.5H12.5V7.5Z" fill="black"/>
</svg>
