<svg width="24" height="24" viewBox="0 0 14 14" fill="none" xmlns="http://www.w3.org/2000/svg">
	<path d="M13.3243 5.37093L11.9077 5.1653C11.8594 5.03195 11.8134 4.90175 11.7565 4.77698L12.6292 3.61812C12.8753 3.28877 12.8258 2.80385 12.5115 2.48972L11.4884 1.46527C11.3124 1.28905 11.0757 1.18912 10.8383 1.18912C10.6622 1.18912 10.4976 1.24512 10.3605 1.34732L9.2029 2.21708C9.07533 2.1581 8.9453 2.1112 8.8144 2.06255L8.60808 0.66535C8.54875 0.253225 8.169 0 7.72467 0H6.27567C5.83135 0 5.4516 0.253225 5.39227 0.665525L5.18577 2.05853C5.05487 2.10735 4.92415 2.15495 4.79623 2.21463L3.6393 1.34662C3.50245 1.24442 3.33707 1.1886 3.16138 1.1886C2.92355 1.1886 2.68607 1.28852 2.51003 1.4651L1.48522 2.4892C1.1704 2.8042 1.11773 3.2893 1.36395 3.6183L2.22845 4.77627C2.16947 4.90367 2.11207 5.03405 2.06377 5.16565L0.676375 5.37127C0.274225 5.42903 0 5.80072 0 6.25467V7.70297C0 8.15692 0.273875 8.5288 0.67585 8.5869L2.09282 8.7927C2.14112 8.92622 2.18698 9.05643 2.24385 9.18103L1.37112 10.3399C1.1249 10.6694 1.17443 11.1543 1.48872 11.4684L2.51178 12.4929C2.68765 12.6693 2.92407 12.7697 3.16155 12.7697C3.3376 12.7697 3.50297 12.715 3.63982 12.6129L4.79727 11.746C4.92467 11.805 5.05505 11.8571 5.18595 11.9058L5.39245 13.3133C5.4516 13.7256 5.83135 14 6.27567 14H7.72467C8.169 14 8.54875 13.7259 8.60825 13.3133L8.81475 11.8995C8.9446 11.8512 9.07515 11.8036 9.20447 11.7434L10.3614 12.6112C10.4977 12.7134 10.6633 12.7692 10.8392 12.7692C11.0768 12.7692 11.3146 12.6693 11.4909 12.4929L12.5153 11.4686C12.8301 11.1536 12.8828 10.6689 12.6367 10.3393L11.7722 9.18172C11.8317 9.05345 11.8888 8.9229 11.9369 8.79235L13.3247 8.58673C13.7263 8.5288 14 8.15693 14 7.7035V6.25502C14 5.80072 13.7263 5.42903 13.3243 5.37093ZM11.1794 8.2663C11.0997 8.52512 10.9938 8.77993 10.865 9.023L10.734 9.26923L11.9035 10.8311C11.9005 10.8355 11.897 10.8409 11.8916 10.8461L10.8671 11.8709C10.8624 11.8758 10.8573 11.88 10.8531 11.8827L9.29058 10.7161L9.04435 10.8474C8.7934 10.9805 8.53895 11.0885 8.2873 11.1659L8.02077 11.2513L7.7413 13.244C7.73692 13.2454 7.7315 13.3 7.72467 13.3H6.27567C6.26937 13.3 6.26395 13.2452 6.2594 13.2443L5.9801 11.2669L5.71305 11.1683C5.4551 11.0894 5.20065 10.9783 4.95635 10.8491L4.70977 10.7154L3.1451 11.8816C3.14142 11.879 3.13757 11.8751 3.13355 11.8711L2.10945 10.8463C2.1049 10.8419 2.10088 10.8369 2.09807 10.833L3.26917 9.26993L3.13617 9.02282C3.01315 8.79112 2.90797 8.54368 2.82275 8.26612L2.7328 7.99995L0.774025 7.7245C0.773325 7.7182 0.7 7.71102 0.7 7.7035V6.25502C0.7 6.24715 0.773325 6.24015 0.7742 6.23403L2.7188 5.9584L2.81085 5.69222C2.89065 5.43288 3.0016 5.17807 3.13022 4.93535L3.26358 4.68895L2.09562 3.1269C2.09843 3.12252 2.1028 3.11745 2.10823 3.11203L3.13267 2.08758C3.13757 2.08268 3.14282 2.079 3.1472 2.07603L4.70977 3.24345L4.95635 3.11325C5.20765 2.9799 5.4621 2.87472 5.71305 2.79755L5.97975 2.71757L6.25887 0.735C6.26325 0.733775 6.26902 0.7 6.27567 0.7H7.72467C7.73115 0.7 7.73658 0.733425 7.74113 0.73465L8.0206 2.6971L8.2873 2.7895C8.54735 2.86948 8.8018 2.9806 9.044 3.10923L9.29058 3.2424L10.8551 2.07603C10.8586 2.07883 10.8626 2.0825 10.8666 2.0867L11.8904 3.11115C11.8951 3.11588 11.8993 3.12078 11.9019 3.1248L10.7313 4.6879L10.864 4.93482C10.9853 5.16425 11.0938 5.4187 11.1774 5.6917L11.2677 5.95787L13.2258 6.2335C13.2267 6.2398 13.3 6.2468 13.3 6.25467V7.70297C13.3 7.7112 13.2267 7.71802 13.2258 7.72415L11.2814 7.9996L11.1794 8.2663Z" fill="black" />
	<path d="M7.00022 9.96995C5.31847 9.96995 3.95032 8.60145 3.95032 6.9197C3.95032 5.23795 5.31847 3.86963 7.00022 3.86963C8.68162 3.86963 10.0503 5.23778 10.0503 6.9197C10.0503 8.60128 8.68162 9.96995 7.00022 9.96995ZM7.00022 4.58275C5.71169 4.58275 4.66327 5.63118 4.66327 6.9197C4.66327 8.20823 5.71169 9.25665 7.00022 9.25665C8.28857 9.25665 9.33717 8.20875 9.33717 6.9197C9.33699 5.63118 8.28857 4.58275 7.00022 4.58275Z" fill="black" />
</svg>
