<svg width="26" height="14" viewBox="0 0 26 14" fill="none" xmlns="http://www.w3.org/2000/svg">
<path d="M11.7049 0H7.04167C6.95758 0 6.87464 0.0194622 6.79943 0.0568463C6.72421 0.0942305 6.65879 0.148511 6.60833 0.215385L0.108333 8.83077C0.0479771 8.91077 0.0112229 9.00589 0.00218897 9.10549C-0.00684494 9.20508 0.0121985 9.30521 0.0571855 9.39465C0.102172 9.48409 0.171326 9.55932 0.256896 9.61189C0.342466 9.66446 0.441073 9.69231 0.541667 9.69231H12.4583V12.9231H11.375C11.2313 12.9231 11.0936 12.9798 10.992 13.0808C10.8904 13.1818 10.8333 13.3187 10.8333 13.4615C10.8333 13.6043 10.8904 13.7413 10.992 13.8423C11.0936 13.9433 11.2313 14 11.375 14H14.625C14.7687 14 14.9064 13.9433 15.008 13.8423C15.1096 13.7413 15.1667 13.6043 15.1667 13.4615C15.1667 13.3187 15.1096 13.1818 15.008 13.0808C14.9064 12.9798 14.7687 12.9231 14.625 12.9231H13.5417V9.69231H25.4583C25.5589 9.69231 25.6575 9.66446 25.7431 9.61189C25.8287 9.55932 25.8978 9.48409 25.9428 9.39465C25.9878 9.30521 26.0068 9.20508 25.9978 9.10549C25.9888 9.00589 25.952 8.91077 25.8917 8.83077L19.3917 0.215385C19.3412 0.148511 19.2758 0.0942305 19.2006 0.0568463C19.1254 0.0194622 19.0424 0 18.9583 0H11.7049ZM12.1653 1.07692H13.8347L14.0113 2.15385H11.9887L12.1653 1.07692ZM7.3125 1.07692H8.81454L8.35521 2.15385H6.5L7.3125 1.07692ZM5.6875 3.23077H7.89587L7.43654 4.30769H4.875L5.6875 3.23077ZM5.59975 8.61539H1.625L2.4375 7.53846H6.05854L5.59975 8.61539ZM3.25 6.46154L4.0625 5.38462H6.97721L6.51788 6.46154H3.25ZM9.83125 8.61539H6.77625L7.23558 7.53846H10.0078L9.83125 8.61539ZM10.1844 6.46154H7.69275L8.15208 5.38462H10.3588L10.1844 6.46154ZM10.5376 4.30769H8.6125L9.07183 3.23077H10.7142L10.5376 4.30769ZM9.53333 2.15385L9.99267 1.07692H11.0695L10.8929 2.15385H9.53333ZM15.6406 5.38462H17.8474L18.3067 6.46154H15.8167L15.6406 5.38462ZM16.1704 8.61539L15.9938 7.53846H18.766L19.2254 8.61539H16.1704ZM24.375 8.61539H20.4002L19.9415 7.53846H23.5625L24.375 8.61539ZM22.75 6.46154H19.4821L19.0228 5.38462H21.9375L22.75 6.46154ZM21.125 4.30769H18.5635L18.1041 3.23077H20.3125L21.125 4.30769ZM18.6875 1.07692L19.5 2.15385H17.6448L17.1855 1.07692H18.6875ZM17.3875 4.30769H15.4624L15.2853 3.23077H16.9276L17.3875 4.30769ZM16.0095 1.07692L16.4688 2.15385H15.1093L14.9327 1.07692H16.0095ZM15.0713 8.61539H10.9287L11.1053 7.53846H14.8969L15.0713 8.61539ZM14.7182 6.46154H11.2818L11.459 5.38462H14.541L14.7182 6.46154ZM11.6355 4.30769L11.8121 3.23077H14.1879L14.3645 4.30769H11.6355Z" fill="#03A000"/>
</svg>
