<svg width="12" height="12" viewBox="0 0 12 12" fill="none" xmlns="http://www.w3.org/2000/svg">
<g clip-path="url(#clip0_6541_812)">
<path d="M6.0105 7.5C4.22425 7.5 2.771 5.81775 2.771 3.75C2.771 1.68225 4.224 0 6.0105 0C7.79675 0 9.25 1.68225 9.25 3.75C9.25 5.81775 7.79675 7.5 6.0105 7.5ZM6.0105 0.5C4.5 0.5 3.271 1.958 3.271 3.75C3.271 5.542 4.5 7 6.0105 7C7.521 7 8.75 5.542 8.75 3.75C8.75 1.958 7.521 0.5 6.0105 0.5Z" fill="white"/>
<path d="M11.9955 12H0.00476074V10.3073C0.00476074 9.5695 0.471511 8.907 1.16601 8.65925L4.25001 7.8095V6.77075H4.75001V8.1905L1.31626 9.1355C0.838011 9.30725 0.504511 9.78025 0.504511 10.3073V11.5H11.4955V10.3073C11.4955 9.7805 11.1623 9.30725 10.6658 9.13L7.25001 8.1905V6.78125H7.75001V7.8095L10.8163 8.6535C11.5288 8.90725 11.9955 9.56925 11.9955 10.307V12Z" fill="white"/>
<path d="M8.19974 3.30446C8.18274 3.30446 8.16574 3.30421 8.14849 3.30346C7.58574 3.28296 6.92974 2.92696 6.51299 2.44571C6.22149 2.81721 5.80524 3.05621 5.28999 3.14371C4.38874 3.29846 3.35799 2.95246 3.04449 2.64821L3.39274 2.28921C3.54374 2.43596 4.40149 2.78771 5.20624 2.65071C5.70574 2.56596 6.06574 2.30921 6.27624 1.88796L6.48524 1.47021L6.71699 1.87571C6.99374 2.36021 7.65774 2.78496 8.16699 2.80371C8.39349 2.80971 8.55449 2.74196 8.65724 2.58946L9.07199 2.86871C8.88199 3.15096 8.57374 3.30446 8.19974 3.30446Z" fill="white"/>
</g>
<defs>
<clipPath id="clip0_6541_812">
<rect width="12" height="12" fill="white"/>
</clipPath>
</defs>
</svg>
